<svg xmlns="http://www.w3.org/2000/svg" xmlns:xlink="http://www.w3.org/1999/xlink" viewBox="0 0 548 390"><defs><style>.cls-1{mask:url(#mask);filter:url(#luminosity-noclip-2);}.cls-2,.cls-6{mix-blend-mode:multiply;}.cls-2,.cls-9{fill:url(#linear-gradient);}.cls-3{isolation:isolate;}.cls-4{fill:url(#New_Gradient_Swatch_1);}.cls-5{fill:#f9f9f9;}.cls-6{fill:url(#radial-gradient);}.cls-7{fill:url(#radial-gradient-2);}.cls-8{mask:url(#mask-2);}.cls-9{mix-blend-mode:screen;}.cls-10{fill:#fff;}.cls-11{fill:#1a1a1a;}.cls-12{filter:url(#luminosity-noclip);}</style><filter id="luminosity-noclip" x="187.71" y="-8387" width="171.62" height="32766" filterUnits="userSpaceOnUse" color-interpolation-filters="sRGB"><feFlood flood-color="#fff" result="bg"/><feBlend in="SourceGraphic" in2="bg"/></filter><mask id="mask" x="187.71" y="-8387" width="171.62" height="32766" maskUnits="userSpaceOnUse"><g class="cls-12"/></mask><linearGradient id="linear-gradient" x1="443.84" y1="188.71" x2="375.71" y2="101.87" gradientTransform="translate(-473.66 -73.55) scale(1.81 1.67)" gradientUnits="userSpaceOnUse"><stop offset="0"/><stop offset="1" stop-color="#fff"/></linearGradient><radialGradient id="New_Gradient_Swatch_1" cx="-1225.49" cy="1695.51" r="0.18" gradientTransform="matrix(1742.33, 0, 0, -1753.65, 2135488.4, 2973515.49)" gradientUnits="userSpaceOnUse"><stop offset="0" stop-color="#fff"/><stop offset="0.68" stop-color="#fdfdfd"/><stop offset="0.98" stop-color="#f6f6f6"/><stop offset="1" stop-color="#f5f5f5"/></radialGradient><radialGradient id="radial-gradient" cx="-1187.28" cy="8620.64" r="36.73" gradientTransform="translate(2697.84 -1605.52) scale(2.04 0.22)" gradientUnits="userSpaceOnUse"><stop offset="0" stop-color="#4d4d4d"/><stop offset="0.11" stop-color="#6b6b6b"/><stop offset="0.33" stop-color="#a0a0a0"/><stop offset="0.54" stop-color="#c9c9c9"/><stop offset="0.73" stop-color="#e7e7e7"/><stop offset="0.89" stop-color="#f9f9f9"/><stop offset="1" stop-color="#fff"/></radialGradient><radialGradient id="radial-gradient-2" cx="274" cy="195" r="100" gradientUnits="userSpaceOnUse"><stop offset="0.86" stop-color="#171717"/><stop offset="0.91" stop-color="#191919"/><stop offset="0.93" stop-color="#212121"/><stop offset="0.95" stop-color="#2f2f2f"/><stop offset="0.97" stop-color="#434343"/><stop offset="0.98" stop-color="#5c5c5c"/><stop offset="1" stop-color="#7b7b7b"/><stop offset="1" stop-color="#878787"/></radialGradient><filter id="luminosity-noclip-2" x="187.71" y="97.6" width="171.62" height="158.31" filterUnits="userSpaceOnUse" color-interpolation-filters="sRGB"><feFlood flood-color="#fff" result="bg"/><feBlend in="SourceGraphic" in2="bg"/></filter><mask id="mask-2" x="187.71" y="97.6" width="171.62" height="158.31" maskUnits="userSpaceOnUse"><g class="cls-1"><ellipse class="cls-2" cx="273.52" cy="176.75" rx="85.81" ry="79.15"/></g></mask></defs><title>8ball</title><g class="cls-3"><g id="background"><rect id="color" class="cls-4" width="548" height="390"/><g id="sunburst"><polygon class="cls-5" points="288.98 186.94 548 217.53 548 206.71 288.98 186.94"/><polygon class="cls-5" points="288.71 188.39 548 245.21 548 234.06 288.71 188.39"/><polygon class="cls-5" points="288.31 189.8 548 274.11 548 262.38 288.31 189.8"/><polygon class="cls-5" points="287.77 191.17 548 304.92 548 292.31 287.77 191.17"/><polygon class="cls-5" points="287.09 192.47 548 338.5 548 324.64 287.09 192.47"/><polygon class="cls-5" points="286.3 193.71 548 376.01 548 360.37 286.3 193.71"/><polygon class="cls-5" points="285.38 194.86 512.5 388.74 532.51 388.74 285.38 194.86"/><polygon class="cls-5" points="284.36 195.92 469.85 388.74 485.86 388.74 284.36 195.92"/><polygon class="cls-5" points="283.24 196.87 434.58 388.74 447.89 388.74 283.24 196.87"/><polygon class="cls-5" points="282.03 197.71 404.39 388.74 415.85 388.74 282.03 197.71"/><polygon class="cls-5" points="280.74 198.42 377.78 388.74 387.92 388.74 280.74 198.42"/><polygon class="cls-5" points="279.39 199 353.71 388.74 362.92 388.74 279.39 199"/><polygon class="cls-5" points="278 199.45 331.43 388.74 340 388.74 278 199.45"/><polygon class="cls-5" points="276.56 199.76 310.36 388.74 318.49 388.74 276.56 199.76"/><polygon class="cls-5" points="275.1 199.93 290.01 388.74 297.9 388.74 275.1 199.93"/><polygon class="cls-5" points="273.63 199.95 269.97 388.74 277.78 388.74 273.63 199.95"/><polygon class="cls-5" points="272.16 199.83 249.85 388.74 257.74 388.74 272.16 199.83"/><polygon class="cls-5" points="270.72 199.57 229.26 388.74 237.4 388.74 270.72 199.57"/><polygon class="cls-5" points="269.3 199.16 207.76 388.74 216.32 388.74 269.3 199.16"/><polygon class="cls-5" points="267.94 198.62 184.84 388.74 194.05 388.74 267.94 198.62"/><polygon class="cls-5" points="266.63 197.95 159.85 388.74 169.98 388.74 266.63 197.95"/><polygon class="cls-5" points="265.39 197.15 131.94 388.74 143.39 388.74 265.39 197.15"/><polygon class="cls-5" points="264.24 196.24 99.92 388.74 113.22 388.74 264.24 196.24"/><polygon class="cls-5" points="263.19 195.21 62.02 388.74 78 388.74 263.19 195.21"/><polygon class="cls-5" points="262.24 194.09 15.47 388.74 35.43 388.74 262.24 194.09"/><polygon class="cls-5" points="261.4 192.88 0 360.32 0 375.99 261.4 192.88"/><polygon class="cls-5" points="260.69 191.6 0 324.51 0 338.4 260.69 191.6"/><polygon class="cls-5" points="260.1 190.25 0 292.13 0 304.76 260.1 190.25"/><polygon class="cls-5" points="259.65 188.85 0 262.16 0 273.9 259.65 188.85"/><polygon class="cls-5" points="259.34 187.41 0 233.8 0 244.96 259.34 187.41"/><polygon class="cls-5" points="259.18 185.95 0 206.42 0 217.25 259.18 185.95"/><polygon class="cls-5" points="259.15 184.49 0 179.46 0 190.19 259.15 184.49"/><polygon class="cls-5" points="259.27 183.02 0 152.4 0 163.23 259.27 183.02"/><polygon class="cls-5" points="259.54 181.57 0 124.7 0 135.86 259.54 181.57"/><polygon class="cls-5" points="259.94 180.16 0 95.78 0 107.51 259.94 180.16"/><polygon class="cls-5" points="260.48 178.79 0 64.94 0 77.55 260.48 178.79"/><polygon class="cls-5" points="261.15 177.48 0 31.32 0 45.2 261.15 177.48"/><polygon class="cls-5" points="261.95 176.25 10.74 1.26 0 1.26 0 9.44 261.95 176.25"/><polygon class="cls-5" points="262.87 175.1 59.22 1.26 41.28 1.26 262.87 175.1"/><polygon class="cls-5" points="263.89 174.04 97.68 1.26 83.33 1.26 263.89 174.04"/><polygon class="cls-5" points="265.01 173.09 129.48 1.26 117.55 1.26 265.01 173.09"/><polygon class="cls-5" points="266.22 172.26 156.69 1.26 146.44 1.26 266.22 172.26"/><polygon class="cls-5" points="267.51 171.54 180.69 1.26 171.61 1.26 267.51 171.54"/><polygon class="cls-5" points="268.85 170.96 202.38 1.26 194.15 1.26 268.85 170.96"/><polygon class="cls-5" points="270.25 170.51 222.47 1.26 214.82 1.26 270.25 170.51"/><polygon class="cls-5" points="271.69 170.2 241.48 1.26 234.21 1.26 271.69 170.2"/><polygon class="cls-5" points="273.15 170.03 259.82 1.26 252.77 1.26 273.15 170.03"/><polygon class="cls-5" points="274.62 170.01 277.89 1.26 270.91 1.26 274.62 170.01"/><polygon class="cls-5" points="276.09 170.13 296.03 1.26 288.98 1.26 276.09 170.13"/><polygon class="cls-5" points="277.53 170.4 314.59 1.26 307.32 1.26 277.53 170.4"/><polygon class="cls-5" points="278.94 170.8 333.98 1.26 326.32 1.26 278.94 170.8"/><polygon class="cls-5" points="280.31 171.34 354.65 1.26 346.42 1.26 280.31 171.34"/><polygon class="cls-5" points="281.62 172.01 377.19 1.26 368.11 1.26 281.62 172.01"/><polygon class="cls-5" points="282.86 172.81 402.35 1.26 392.1 1.26 282.86 172.81"/><polygon class="cls-5" points="284 173.72 431.22 1.26 419.3 1.26 284 173.72"/><polygon class="cls-5" points="285.06 174.75 465.4 1.26 451.07 1.26 285.06 174.75"/><polygon class="cls-5" points="286.01 175.87 507.38 1.26 489.47 1.26 286.01 175.87"/><polygon class="cls-5" points="548 9.8 548 1.26 537.84 1.26 286.85 177.08 548 9.8"/><polygon class="cls-5" points="287.56 178.36 548 45.57 548 31.7 287.56 178.36"/><polygon class="cls-5" points="288.14 179.71 548 77.92 548 65.31 288.14 179.71"/><polygon class="cls-5" points="288.59 181.11 548 107.88 548 96.14 288.59 181.11"/><polygon class="cls-5" points="288.91 182.55 548 136.21 548 125.06 288.91 182.55"/><polygon class="cls-5" points="548 152.74 289.07 184.01 548 163.56 548 152.74"/><polygon class="cls-5" points="289.1 185.48 548 190.49 548 179.78 289.1 185.48"/></g></g><g id="magic_8_ball" data-name="magic 8 ball"><ellipse id="bottom_shadow" data-name="bottom shadow" class="cls-6" cx="274" cy="293.61" rx="75" ry="8.09"/><circle class="cls-7" cx="274" cy="195" r="100"/><g class="cls-8"><ellipse class="cls-9" cx="273.52" cy="176.75" rx="85.81" ry="79.15"/></g><circle class="cls-10" cx="272.89" cy="195.33" r="48.65"/><path class="cls-11" d="M289.73,183.06a11.65,11.65,0,0,1-2.07,6.84,13.53,13.53,0,0,1-5.62,4.59,15.44,15.44,0,0,1,6.73,4.89,11.81,11.81,0,0,1,2.51,7.45q0,7.14-4.76,11t-12.11,3.9q-7.8,0-12.74-3.9t-4.94-11a11.6,11.6,0,0,1,2.58-7.45,15.8,15.8,0,0,1,7-4.89,13.84,13.84,0,0,1-5.87-4.59,11.38,11.38,0,0,1-2.14-6.84q0-6.78,4.43-10.37t11.6-3.59q6.79,0,11.09,3.6T289.73,183.06Zm-7,23.45a8.32,8.32,0,0,0-2.43-6.17,8.19,8.19,0,0,0-6-2.41,9.13,9.13,0,0,0-6.5,2.41,8.09,8.09,0,0,0-2.57,6.17,7.86,7.86,0,0,0,2.55,6.13,9.46,9.46,0,0,0,6.59,2.3,8.27,8.27,0,0,0,6-2.3A8.12,8.12,0,0,0,282.77,206.51Zm-1.58-23.13a7.51,7.51,0,0,0-1.93-5.36,6.46,6.46,0,0,0-4.92-2.06,7.49,7.49,0,0,0-5.43,2,7.2,7.2,0,0,0-2.06,5.43,7.57,7.57,0,0,0,2.11,5.57,7.34,7.34,0,0,0,5.45,2.13,6.26,6.26,0,0,0,4.87-2.13A8,8,0,0,0,281.19,183.38Z"/></g></g></svg>